<svg version="1.1" xmlns="http://www.w3.org/2000/svg" style="display: block;" viewBox="0 0 2048 2048" width="1024" height="1024" preserveAspectRatio="none">
<path transform="translate(0,0)" fill="rgb(0,0,0)" d="M 0 0 L 2048 0 L 2048 2048 L 0 2048 L 0 0 z"/>
<path transform="translate(0,0)" fill="rgb(254,254,254)" d="M 1020.01 509.234 C 1023.37 509.24 1027.35 508.95 1030.47 510.413 C 1036.84 513.398 1073.53 593.911 1079.68 606.931 C 1070.03 622.081 1060.31 643.198 1053.17 659.952 C 1057.7 667.904 1061.95 674.432 1066.98 682.013 C 1072.57 683.132 1078.52 683.966 1084.17 684.873 C 1152.13 695.775 1219.97 706.865 1288.26 715.598 C 1303.96 717.606 1320.43 719.669 1335.98 722.417 C 1345.12 704.288 1358.35 691.696 1379.98 692.35 C 1390.97 692.577 1401.4 697.286 1408.83 705.386 C 1424.21 721.85 1422.1 738.205 1421.46 758.467 C 1432.76 771.149 1432.94 780.123 1422.21 792.832 C 1460.51 885.3 1496.67 979.562 1534.38 1072.44 C 1552.71 1117.36 1570.79 1162.38 1588.61 1207.5 C 1593.66 1220.47 1615.87 1268.68 1610.44 1278.7 C 1597.16 1303.18 1557.22 1328.78 1532.7 1340.95 C 1466.73 1373.71 1384.4 1377.76 1314.85 1354.06 C 1276.95 1339.97 1227.12 1314.08 1204.86 1279.59 C 1198.71 1270.05 1221.76 1219.74 1226.19 1208.61 L 1263.1 1116.44 L 1355.67 886.465 C 1367.84 856.014 1381.17 824.421 1392.81 793.967 C 1376.12 781.067 1379.37 764.183 1398.27 755.889 C 1398.46 745.91 1399.7 731.322 1393.01 723.717 C 1383.69 713.114 1370.29 714.005 1361.45 724.657 C 1356.12 731.083 1356.54 743.696 1346.74 743.879 C 1323.25 744.317 1299.69 744.047 1276.17 744.04 L 1126.89 743.983 C 1116.47 743.967 1069 741.269 1063 747.469 C 1058.39 752.227 1059.14 759.899 1058.96 766.033 C 1078.13 767.876 1092.75 775.476 1085.63 797.432 C 1082.01 808.586 1068.31 819.319 1067.78 830.174 C 1070.93 834.331 1075.3 833.856 1079.74 836.514 C 1098.09 847.505 1085.01 870.03 1077.95 883.233 C 1081.35 891.701 1084.88 899.775 1085.14 909.068 C 1085.54 923.803 1076.56 939.296 1071.62 953.157 C 1065.03 971.644 1061.89 986.676 1063.41 1006.24 C 1065.49 1032.76 1080.05 1052.66 1088.27 1076.72 C 1088.38 1077.12 1088.48 1077.52 1088.58 1077.92 C 1082.82 1094.52 1070.82 1105.14 1066.28 1125.97 C 1057.47 1166.32 1076.51 1214.77 1087.98 1253.58 C 1090.47 1262.01 1098.04 1280.79 1097.4 1288.58 C 1095.85 1307.75 1074.55 1327.32 1070.67 1346.56 C 1068.94 1355.17 1069.32 1368.5 1070.56 1377.01 C 1077.03 1421.36 1101.28 1438.01 1143.06 1446.76 C 1167.3 1452.14 1177.28 1450.93 1198.91 1466.53 C 1212.29 1476.18 1239.43 1511.95 1228.48 1531.33 C 1225.53 1536.57 1205.53 1533.9 1198.51 1533.93 C 1188.84 1533.97 1176.48 1534.11 1165.88 1534.12 L 1035.5 1534.23 L 833.58 1534.24 C 817.788 1534.12 818.879 1526.75 821.797 1513.27 C 825.312 1497.05 834.087 1482.91 845.989 1471.48 C 882.256 1436.65 949.508 1457.5 972.996 1404.06 C 982.085 1383.62 980.939 1366.09 981.217 1344.35 C 973.175 1329.5 958.146 1307.2 953.86 1291.4 C 951.896 1284.16 960.533 1262.88 963.07 1254.14 C 975.104 1212.06 992.435 1170.38 984.278 1125.94 C 981.959 1113.31 963.336 1081.44 964.151 1075.62 C 966.142 1061.39 980.161 1040.84 984.214 1024.13 C 992.153 996.02 985 966.411 974.14 939.98 C 964.259 915.931 963.472 907.877 973.333 883.689 C 969.864 876.833 965.485 870.449 962.929 863.064 C 954.167 837.751 978.225 837.602 982.405 829.263 C 981.103 814.184 959.44 805.335 964.306 783.746 C 968.756 763.997 990.176 771.954 991.935 760.9 C 993.217 752.844 987.975 744.267 977.384 744.019 C 956.515 743.532 935.208 743.978 914.072 744 L 776.331 743.962 C 753.858 744.021 730.937 744.383 708.48 744.233 C 693.078 745.001 695.214 730.47 686.731 721.745 C 679.38 714.185 666.499 714.469 659.438 722.549 C 650.736 732.507 651.963 743.661 652.192 755.863 C 669.49 765.827 675.114 778.672 658.852 793.56 C 663.129 807.078 671.202 825.7 676.578 839.177 L 709.775 922.043 L 809.921 1172.78 C 821.407 1201.62 832.908 1230.36 844.236 1259.29 C 854.975 1281.22 830.184 1299.04 813.54 1312.26 C 708.072 1396.07 535.861 1387.25 444.284 1286.41 C 440.833 1282.61 437.993 1276.75 439.107 1271.56 C 443.582 1250.68 453.309 1230.26 461.305 1210.4 L 495.095 1126 L 628.648 792.902 C 617.218 779.866 618.247 770.994 629.06 758.076 C 628.914 735.146 628.314 710.491 652.005 697.741 C 662.393 692.23 674.548 691.084 685.784 694.556 C 700.295 699.159 708.11 708.494 714.873 721.283 C 732.075 720.29 754.401 716.723 771.739 714.358 C 804.324 710.021 836.855 705.289 869.325 700.163 L 934.21 689.942 C 949.737 687.635 967.637 685.475 982.869 682.48 C 988.092 675.795 993.326 666.432 997.75 658.981 C 990.434 643.414 980.47 622.784 971.836 608.196 C 976.621 596.968 1014.98 514.676 1020.01 509.234 z"/>
<path transform="translate(0,0)" fill="rgb(0,0,0)" d="M 643.206 818.647 C 645.767 821.777 658.755 856.869 661.037 862.714 L 693.016 943.319 C 734.068 1046.44 779.137 1152.66 818.345 1256.07 C 766.35 1257.26 710.112 1256.36 657.802 1256.17 C 656.67 1233.89 657.143 1208.76 657.145 1186.35 C 657.047 1153.5 657.142 1120.65 657.431 1087.81 C 685.93 1087.54 695.598 1090.35 701.214 1121.23 C 709.273 1121.93 716.337 1121.66 724.383 1121.47 C 724.357 1102.3 724.234 1083.13 724.015 1063.96 C 704.16 1062.37 662.197 1063.81 641.117 1063.87 C 616.172 1063.64 589.227 1063.4 564.377 1064.06 C 563.554 1080.4 563.795 1105.57 564.446 1121.9 L 586.915 1121.52 C 592.988 1088.99 601.81 1087.47 631.615 1087.88 C 630.587 1102.91 631.512 1128.11 631.542 1144.15 L 631.622 1256.11 C 578.88 1257.47 520.665 1256.24 467.58 1256.24 C 486.627 1206 509.052 1153.23 529.158 1103.12 L 643.206 818.647 z"/>
<path transform="translate(0,0)" fill="rgb(0,0,0)" d="M 1407.37 819.553 C 1409.45 821.241 1410.16 823.649 1411.19 826.189 L 1583.14 1256.39 L 1460.67 1256.07 C 1476.95 1235.72 1484.69 1219.07 1479.18 1192.44 C 1469.09 1143.7 1414.47 1144.35 1380.02 1123.33 C 1355.29 1108.24 1363.55 1073.37 1389.8 1065.38 C 1404.61 1060.87 1421.01 1063.61 1432.95 1074.02 C 1445.15 1084.91 1446.21 1094.24 1447.11 1109.1 C 1456.12 1110.31 1466.66 1109.91 1475.7 1109.62 C 1476.52 1088.93 1475.94 1063.69 1475.86 1042.75 C 1466.06 1042.02 1455.42 1040.81 1446.95 1046.26 C 1438.04 1042.48 1431.19 1039.76 1422.02 1036.73 C 1393.3 1031.62 1363.15 1037.78 1346.32 1063.86 C 1337.09 1078.33 1333.99 1095.88 1337.71 1112.64 C 1348.18 1159.54 1401.83 1160.35 1435.79 1180.05 C 1454.5 1191.16 1456.45 1214.13 1444.02 1230.8 C 1430.8 1248.54 1396.72 1249.23 1380.16 1236.38 C 1365.22 1224.79 1362.83 1212.72 1360.7 1195.15 C 1351.16 1194.55 1344.23 1194.63 1334.66 1194.87 C 1333.22 1210.23 1334 1239.69 1333.91 1256.1 C 1300.77 1256.83 1265.47 1256.22 1232.17 1256.24 C 1242.57 1231.37 1252.6 1204.41 1262.76 1179.18 L 1332.6 1006.26 L 1384.76 875.917 C 1392.25 857.093 1400.31 838.542 1407.37 819.553 z"/>
<path transform="translate(0,0)" fill="rgb(0,0,0)" d="M 470.114 1280.16 C 480.225 1279.37 497.856 1279.86 508.391 1279.85 L 583.213 1279.83 L 815.531 1279.87 C 803.533 1292.32 791.638 1300.37 777.427 1309.7 C 691.565 1361.74 571.12 1358.24 489.994 1297.48 C 483.665 1292.74 475.19 1285.97 470.114 1280.16 z"/>
<path transform="translate(0,0)" fill="rgb(0,0,0)" d="M 1234.82 1280.04 C 1247.3 1279.3 1265.13 1279.83 1277.91 1279.84 L 1357.34 1279.9 L 1580.93 1279.96 C 1568.23 1292.02 1556.76 1300 1542.34 1309.42 C 1465.12 1356.22 1362.99 1357.91 1283.54 1315.83 C 1268.19 1307.7 1246.57 1293.19 1234.82 1280.04 z"/>
<path transform="translate(0,0)" fill="rgb(0,0,0)" d="M 993.2 1088.32 C 1014.07 1087.77 1037.2 1088.21 1058.22 1088.2 C 1053.8 1096.87 1049.16 1105.89 1046.64 1115.3 C 1031.22 1172.88 1060.95 1232.83 1074.85 1286.7 C 1068.3 1304.54 1055.62 1320.22 1049.25 1338.83 L 1047.01 1348.16 L 1004.21 1348.1 C 997.008 1322.16 985.3 1310.01 976.233 1287.22 C 978.726 1274.24 984.951 1258.29 988.914 1244.96 C 1000.8 1205 1014.65 1159.98 1005.18 1118.28 C 1002.76 1107.64 997.936 1097.88 993.2 1088.32 z"/>
<path transform="translate(0,0)" fill="rgb(0,0,0)" d="M 885.754 1477.3 C 899.119 1476.35 918.282 1476.75 931.989 1476.74 L 1014.16 1476.86 L 1105.36 1476.73 C 1122.25 1476.7 1139.05 1476.61 1155.94 1476.96 C 1180.5 1477.47 1194.94 1488.98 1204.4 1511.24 C 1191.87 1511.37 1179.35 1511.31 1166.82 1511.07 C 1062.04 1510.27 950.974 1509.78 846.549 1511.38 C 854.593 1492.67 865.417 1481.91 885.754 1477.3 z"/>
<path transform="translate(0,0)" fill="rgb(0,0,0)" d="M 985.189 857.86 C 992.966 857.294 1004.92 857.787 1012.99 857.801 L 1065.64 857.763 C 1057.67 872.151 1049.76 880.187 1058.85 896.279 C 1067.24 911.155 1057.36 927.108 1052.09 941.604 C 1035.59 987.032 1037.82 1018.51 1058.01 1061.72 C 1058.8 1063.39 1058.63 1062.45 1058.24 1064.58 C 1052.53 1067.39 1000.61 1065.81 991.27 1065.24 C 1012.41 1022.99 1015.8 987.53 999.47 943.212 C 990.525 918.937 983.395 913.561 995.618 888.662 C 999.114 881.54 989.4 865.166 985.189 857.86 z"/>
<path transform="translate(0,0)" fill="rgb(0,0,0)" d="M 1024.79 658.687 C 1029.74 662.327 1045.76 693.063 1052.13 701.865 C 1057.19 703.049 1062.36 703.767 1067.48 704.638 C 1101.18 710.372 1135.12 714.737 1168.66 721.343 C 1158.78 721.94 1146.44 720.594 1136.01 721.888 C 1109.78 725.14 1067.48 713.977 1046.26 731.601 C 1036.73 739.521 1036.67 755.9 1036.53 766.619 L 1022.53 766.48 L 1014.09 766.516 C 1013.84 746.626 1010.38 727.496 986.558 723.014 C 974.127 720.675 959.3 722.382 946.474 722.01 C 923.86 721.354 901.061 722.037 878.44 721.538 C 917.723 714.577 958.031 709.117 997.634 702.413 C 1006.47 690.919 1016.23 671.602 1024.79 658.687 z"/>
<path transform="translate(0,0)" fill="rgb(0,0,0)" d="M 1004.6 1371.89 L 1046.7 1372.01 C 1048.51 1408.74 1066.96 1435.53 1097.01 1454.86 C 1081.84 1454.06 1062.02 1454.6 1046.5 1454.57 C 1015.62 1454.4 984.749 1454.5 953.875 1454.87 C 986.777 1436.77 999.229 1407.53 1004.6 1371.89 z"/>
<path transform="translate(0,0)" fill="rgb(0,0,0)" d="M 1025.33 547.654 C 1030.86 553.871 1049.49 596.358 1053.98 606.259 C 1048.73 617.105 1042.56 628.467 1038.07 639.529 C 1033.84 633.855 1032.76 631.895 1026.03 630.224 C 1019.26 632.483 1018.17 633.609 1013.25 638.933 C 1007.71 628.39 1002.33 617.763 997.109 607.056 C 1002.15 593.452 1018.21 560.94 1025.33 547.654 z"/>
<path transform="translate(0,0)" fill="rgb(0,0,0)" d="M 987.184 790.263 C 996.235 789.396 1011.69 789.786 1021.15 789.791 C 1034.92 789.798 1050.83 789.468 1064.44 790.444 C 1059.16 800.265 1050.13 806.53 1046.45 817.23 C 1044.95 824.101 1045.06 826.798 1045.01 833.808 C 1032.05 834.088 1018.58 833.968 1005.58 834.036 C 1004.69 802.465 988.568 804.344 987.184 790.263 z"/>
</svg>