<svg width="587" height="513" viewBox="0 0 587 513" fill="none" xmlns="http://www.w3.org/2000/svg">
<path d="M290.812 0.507812C291.602 0.504065 292.401 0.480919 293.203 0.530273C294.078 0.584112 294.894 0.724551 295.592 1.05176C295.678 1.09218 295.874 1.25404 296.185 1.63281C296.478 1.99059 296.829 2.48466 297.23 3.10547C298.033 4.34574 299.014 6.05394 300.12 8.09277C302.33 12.1683 305.015 17.5351 307.698 23.0654C312.937 33.8622 318.159 45.2471 319.84 48.8223C315.04 56.4164 310.229 66.8779 306.694 75.1729L306.598 75.4004L306.72 75.6162C308.994 79.6076 311.126 82.8834 313.643 86.6758L313.758 86.8486L313.961 86.8896C316.768 87.4517 319.764 87.872 322.575 88.3232C356.552 93.7738 390.481 99.3198 424.636 103.688C432.489 104.692 440.712 105.722 448.473 107.094L448.839 107.158L449.006 106.826C451.27 102.335 454.023 98.5678 457.517 95.9639C461 93.3671 465.246 91.9073 470.544 92.0674H470.549C475.908 92.1781 480.994 94.4746 484.616 98.4238L484.619 98.4268C492.143 106.48 491.122 114.423 490.8 124.61L490.793 124.81L490.926 124.959C493.723 128.098 495.063 130.693 495.117 133.224C495.171 135.751 493.945 138.344 491.292 141.486L491.096 141.719L491.212 142C510.363 188.237 528.434 235.344 547.296 281.801L547.297 281.802C556.461 304.259 565.499 326.766 574.408 349.323V349.324C575.692 352.62 579.071 360.192 581.828 367.669C583.202 371.394 584.405 375.056 585.097 378.09C585.443 379.607 585.657 380.953 585.704 382.062C585.752 383.185 585.623 383.999 585.35 384.504C582.083 390.525 575.504 396.733 568.163 402.213C560.835 407.683 552.803 412.389 546.697 415.42C513.839 431.737 472.815 433.758 438.161 421.951C428.712 418.438 417.781 413.456 407.83 407.207C397.871 400.953 388.929 393.452 383.42 384.917C383.119 384.45 382.959 383.66 382.983 382.532C383.008 381.422 383.207 380.062 383.545 378.52C384.22 375.437 385.433 371.696 386.817 367.913C389.59 360.336 393.007 352.703 394.129 349.884L412.583 303.8L458.868 188.812V188.811C464.948 173.599 471.62 157.785 477.441 142.555L477.574 142.208L477.28 141.98C473.199 138.826 471.654 135.268 472.16 132.071C472.669 128.863 475.273 125.828 479.905 123.795L480.198 123.667L480.204 123.347C480.251 120.88 480.432 117.764 480.178 114.807C479.924 111.855 479.231 108.946 477.45 106.921C475.033 104.172 472.053 102.88 469.074 103.001C466.286 103.115 463.558 104.463 461.345 106.9L460.909 107.402C460.194 108.265 459.685 109.319 459.248 110.375C458.796 111.468 458.446 112.496 457.999 113.492C457.562 114.466 457.079 115.29 456.442 115.876C455.822 116.447 455.033 116.811 453.93 116.832C442.191 117.051 430.422 116.917 418.654 116.913L344.015 116.884C342.72 116.882 340.274 116.797 337.26 116.718C334.254 116.639 330.698 116.565 327.21 116.59C323.724 116.615 320.292 116.736 317.537 117.049C316.161 117.205 314.939 117.41 313.957 117.68C312.998 117.943 312.185 118.289 311.71 118.779C310.45 120.08 309.944 121.758 309.732 123.448C309.523 125.118 309.593 126.911 309.55 128.395L309.536 128.862L310.002 128.907C314.769 129.366 318.849 130.534 321.303 132.852C322.518 133.999 323.343 135.436 323.658 137.24C323.975 139.052 323.782 141.263 322.909 143.954C322.035 146.647 319.937 149.301 317.938 152.057C315.981 154.752 314.101 157.569 313.96 160.455L313.951 160.637L314.061 160.782C314.933 161.933 315.978 162.436 317.038 162.816C318.115 163.203 319.128 163.448 320.183 164.079C322.381 165.396 323.609 167.036 324.19 168.843C324.776 170.663 324.721 172.697 324.268 174.81C323.356 179.053 320.882 183.448 319.104 186.773L318.993 186.979L319.08 187.195C320.737 191.323 322.405 195.155 322.623 199.517L322.64 199.94C322.737 203.525 321.693 207.23 320.293 210.937C319.594 212.788 318.811 214.626 318.045 216.445C317.28 218.26 316.531 220.056 315.908 221.804C312.598 231.091 311.008 238.679 311.775 248.552H311.776C312.303 255.264 314.408 261.126 316.88 266.794C319.359 272.479 322.18 277.914 324.226 283.897C324.264 284.039 324.299 284.182 324.336 284.327C322.916 288.355 320.759 291.667 318.624 295.319C316.471 299.001 314.372 302.987 313.221 308.271C310.995 318.466 312.292 329.652 314.845 340.682C317.395 351.704 321.222 362.655 324.08 372.324C324.395 373.39 324.869 374.779 325.393 376.31C325.918 377.845 326.496 379.529 327.024 381.203C327.553 382.878 328.031 384.533 328.355 386.006C328.682 387.489 328.845 388.746 328.771 389.642L328.771 389.643C328.394 394.294 325.614 399.033 322.599 403.901C319.71 408.565 316.607 413.346 315.514 418.112L315.414 418.574C314.534 422.955 314.73 429.682 315.354 433.97C316.984 445.141 320.865 452.886 327.021 458.383C333.162 463.867 341.515 467.065 351.991 469.26V469.261C364.177 471.965 369.024 471.341 379.731 479.063C383.004 481.424 388.025 487.04 391.543 493.279C393.299 496.394 394.666 499.637 395.259 502.682C395.852 505.727 395.664 508.528 394.374 510.812V510.812C394.254 511.026 394.027 511.233 393.659 511.42C393.292 511.606 392.815 511.757 392.24 511.874C391.09 512.107 389.632 512.187 388.081 512.185C386.535 512.182 384.922 512.1 383.468 512.018C382.385 511.956 381.38 511.895 380.567 511.87L379.822 511.857C374.98 511.877 368.81 511.948 363.509 511.953L298.319 512.008L197.362 512.012C195.418 511.997 194.051 511.759 193.105 511.34C192.182 510.931 191.656 510.35 191.373 509.599C191.08 508.821 191.03 507.818 191.16 506.552C191.29 505.29 191.591 503.822 191.956 502.134C193.689 494.136 198.019 487.151 203.91 481.493C208.368 477.212 213.791 474.628 219.638 472.752C225.5 470.87 231.723 469.717 237.828 468.253C249.992 465.337 261.55 461.215 267.524 447.623C272.119 437.288 271.539 428.401 271.678 417.574L271.68 417.444L271.617 417.33C269.611 413.626 266.697 408.925 264.07 404.263C261.421 399.56 259.035 394.846 257.981 390.962C257.768 390.174 257.833 388.926 258.118 387.358C258.4 385.812 258.881 384.027 259.437 382.205C259.992 380.384 260.616 378.538 261.185 376.869C261.751 375.206 262.264 373.709 262.585 372.603V372.601C265.582 362.122 269.268 351.598 271.68 340.966C274.097 330.312 275.256 319.474 273.2 308.272C272.899 306.634 272.08 304.41 271.05 301.981C270.016 299.543 268.751 296.859 267.541 294.293C266.328 291.721 265.172 289.27 264.344 287.281C263.93 286.287 263.602 285.419 263.392 284.717C263.174 283.99 263.105 283.518 263.14 283.272C263.625 279.806 265.585 275.533 267.726 271.009C269.844 266.531 272.127 261.828 273.157 257.594C277.173 243.377 273.546 228.443 268.102 215.192C265.631 209.18 264.332 205.243 264.235 201.323C264.139 197.41 265.239 193.459 267.699 187.426L267.785 187.215L267.682 187.012C266.81 185.29 265.814 183.607 264.902 181.94C263.983 180.261 263.131 178.568 262.506 176.762C261.433 173.663 261.386 171.395 261.893 169.672C262.398 167.952 263.475 166.707 264.784 165.687C266.11 164.653 267.618 163.887 269.005 163.076C270.345 162.293 271.621 161.441 272.219 160.248L272.282 160.122L272.27 159.981C272.097 157.98 271.25 156.209 270.16 154.533C269.084 152.878 267.707 151.228 266.494 149.57C264.037 146.211 262.042 142.56 263.21 137.376C263.744 135.008 264.775 133.504 266.015 132.478C267.267 131.441 268.764 130.862 270.279 130.402C271.755 129.955 273.329 129.602 274.537 129.021C275.793 128.418 276.776 127.516 277.03 125.921C277.713 121.629 274.905 117.034 269.273 116.902C258.831 116.659 248.159 116.881 237.604 116.892L168.735 116.874H168.733C157.487 116.904 146.039 117.085 134.812 117.01L134.799 117.009L134.784 117.01C132.941 117.102 131.676 116.735 130.734 116.111C129.785 115.482 129.112 114.557 128.517 113.434C128.219 112.872 127.945 112.27 127.666 111.639C127.389 111.012 127.103 110.354 126.791 109.701C126.165 108.392 125.408 107.064 124.293 105.917C120.414 101.927 113.635 102.079 109.912 106.338C105.407 111.493 106.052 117.304 106.165 123.334L106.171 123.616L106.416 123.758C110.706 126.229 113.419 128.989 114.137 131.943C114.843 134.849 113.659 138.141 109.658 141.804L109.423 142.02L109.519 142.323C111.664 149.105 115.716 158.454 118.394 165.167H118.395L134.992 206.6L185.065 331.968C190.809 346.389 196.558 360.757 202.222 375.22L202.229 375.239L202.238 375.258C204.804 380.498 203.161 385.258 199.754 389.604C197.187 392.879 193.666 395.856 190.301 398.542L187.028 401.131C134.488 442.882 48.6821 438.475 3.08105 388.262C1.40491 386.416 0.103135 383.645 0.611328 381.277C2.8369 370.893 7.67086 360.751 11.6855 350.779V350.778L28.5811 308.579L95.3574 142.03L95.4717 141.745L95.2695 141.514C92.4461 138.293 91.2414 135.677 91.3252 133.132C91.4096 130.574 92.798 127.959 95.4824 124.752L95.6006 124.611L95.5996 124.428C95.563 118.675 95.4734 112.8 96.8496 107.565C98.2173 102.363 101.028 97.8145 106.806 94.7041L106.807 94.7051C111.883 92.0121 117.823 91.4518 123.313 93.1484C130.393 95.3952 134.215 99.9359 137.563 106.268L137.714 106.552L138.034 106.533C146.661 106.035 157.858 104.246 166.506 103.066C182.802 100.897 199.071 98.5313 215.31 95.9678L247.747 90.8574L247.748 90.8584C255.491 89.708 264.47 88.6235 272.101 87.123L272.283 87.0879L272.397 86.9404C275.035 83.5652 277.675 78.8422 279.874 75.1387L280.01 74.9102L279.896 74.6709C276.276 66.9669 271.347 56.7611 267.047 49.458C268.413 46.3003 273.665 34.9234 278.937 23.8809C281.64 18.218 284.346 12.6479 286.532 8.3252C287.626 6.1635 288.588 4.31753 289.354 2.92871C289.736 2.23403 290.068 1.65719 290.341 1.21484C290.537 0.897743 290.694 0.664182 290.812 0.507812Z" fill="#FEFEFE" stroke="black"/>
<path d="M109.642 338.565C109.593 322.307 109.639 306.048 109.78 289.794C116.656 289.747 121.124 290.113 124.24 292.226C127.399 294.367 129.283 298.391 130.685 306.097L130.753 306.473L131.133 306.506C135.196 306.859 138.759 306.722 142.772 306.627L143.262 306.615L143.261 306.127C143.248 296.54 143.187 286.953 143.077 277.366L143.071 276.91L142.617 276.874L141.651 276.804C131.359 276.121 111.304 276.797 101.13 276.826C88.6598 276.711 75.1788 276.593 62.7441 276.923L62.2822 276.935L62.2588 277.397C61.8463 285.588 61.9671 298.189 62.293 306.362L62.3125 306.851L62.8008 306.842L74.0352 306.652L74.4434 306.646L74.5186 306.244C76.0369 298.111 77.8733 294.056 81.0264 291.984C82.6084 290.945 84.5659 290.375 87.082 290.083C89.4832 289.804 92.3558 289.782 95.8467 289.825C95.4156 296.929 95.7732 308.119 95.833 315.919L95.8408 317.469L95.8799 372.959C69.8863 373.613 41.2829 373.025 15.085 373.014C24.5509 348.102 35.6439 321.983 45.6123 297.139L102.253 155.857C102.306 155.964 102.365 156.08 102.425 156.207C102.722 156.833 103.082 157.65 103.484 158.603C104.288 160.507 105.254 162.933 106.217 165.405C107.179 167.877 108.137 170.391 108.926 172.471C109.714 174.548 110.336 176.198 110.622 176.932L110.623 176.934L126.612 217.236H126.613C147.058 268.593 169.478 321.449 189.021 372.941C163.389 373.509 135.738 373.077 109.947 372.979C109.412 361.975 109.641 349.628 109.642 338.567V338.565Z" fill="black" stroke="black"/>
<path d="M484.447 156.073C484.992 156.756 485.274 157.62 485.7 158.672V158.673L571.399 373.086L511.935 372.93C515.697 368.136 518.513 363.684 520.093 358.853C521.764 353.74 522.042 348.24 520.649 341.511H520.648C518.079 329.1 509.82 322.99 500.141 318.681C495.313 316.532 490.096 314.815 485.054 312.993C479.996 311.166 475.1 309.23 470.84 306.631C464.85 302.976 462.865 296.948 463.956 291.334C465.05 285.706 469.238 280.502 475.615 278.561C482.869 276.352 490.884 277.697 496.711 282.774V282.775C499.708 285.45 501.311 287.908 502.23 290.59C503.157 293.292 503.4 296.25 503.625 299.973L503.65 300.383L504.058 300.438C508.612 301.05 513.929 300.847 518.436 300.702L518.9 300.688L518.919 300.223C519.33 289.863 519.039 277.22 518.999 266.766L518.997 266.303L518.536 266.269C516.103 266.087 513.507 265.841 510.993 265.987C508.556 266.129 506.157 266.642 504 267.962C499.653 266.121 496.256 264.776 491.736 263.282L491.702 263.271L491.667 263.266L490.988 263.148C476.722 260.79 461.742 263.984 453.31 277.052L453.308 277.054C448.768 284.171 447.149 292.756 448.77 301.021L448.937 301.821C451.604 313.769 459.787 319.828 469.335 324.121C474.1 326.263 479.237 327.98 484.206 329.764C489.187 331.552 494.008 333.41 498.209 335.847V335.848C507.259 341.221 508.253 352.347 502.179 360.493V360.494C498.993 364.769 493.247 367.037 487.209 367.424C481.174 367.81 474.975 366.306 470.956 363.188C467.285 360.339 465.175 357.451 463.845 354.207C462.508 350.945 461.949 347.302 461.416 342.907L461.365 342.494L460.95 342.469L459.21 342.371C455.268 342.179 452.078 342.222 447.887 342.327L447.443 342.339L447.401 342.781C446.693 350.339 447.053 364.695 447.025 372.951C430.852 373.294 413.68 373.013 397.402 373.014C402.499 360.772 407.436 347.53 412.413 335.17L447.333 248.71V248.708L473.413 183.537L473.414 183.536C477.054 174.387 480.981 165.319 484.447 156.073Z" fill="black" stroke="black"/>
<path d="M16.6943 385.901C21.1378 385.647 27.7255 385.774 32.6279 385.81L34.7637 385.817L72.1748 385.808L187.143 385.826C181.464 391.533 175.781 395.377 169.007 399.824C126.244 425.733 66.2525 423.982 25.8643 393.732C22.9757 391.569 19.2275 388.582 16.6943 385.901Z" fill="black" stroke="black"/>
<path d="M399.07 385.856C405.209 385.572 413.465 385.808 419.525 385.812L459.24 385.843L569.77 385.871C563.813 391.395 558.318 395.208 551.467 399.684C513.013 422.981 462.143 423.823 422.574 402.865C415.226 398.973 405.021 392.158 399.07 385.856Z" fill="black" stroke="black"/>
<path d="M277.964 290.034C287.914 289.796 298.824 289.984 308.864 289.99C306.771 294.098 304.611 298.413 303.406 302.913C299.519 317.428 301.329 332.217 304.959 346.71C306.774 353.957 309.048 361.143 311.298 368.189C313.532 375.187 315.742 382.045 317.47 388.714C315.85 393.074 313.497 397.183 311.125 401.385C308.735 405.619 306.33 409.943 304.721 414.646L304.713 414.668L304.708 414.691L303.68 418.972L283.05 418.942C281.248 412.592 278.91 407.886 276.469 403.394C273.999 398.848 271.445 394.548 269.205 388.952C269.826 385.777 270.893 382.239 272.056 378.658C273.232 375.035 274.512 371.355 275.505 368.016C281.345 348.382 288.198 326.131 283.861 305.407L283.646 304.422C282.481 299.299 280.216 294.588 277.964 290.034Z" fill="black" stroke="black"/>
<path d="M223.522 484.539C230.18 484.069 239.703 484.266 246.563 484.261V484.262L287.648 484.323H287.65L333.25 484.257C341.698 484.242 350.091 484.198 358.529 484.373C364.59 484.498 369.36 485.98 373.191 488.769C376.865 491.444 379.715 495.352 382.007 500.519C376 500.574 369.997 500.543 363.989 500.428V500.427H363.983C311.853 500.029 256.607 499.785 204.615 500.571C206.539 496.274 208.776 492.889 211.674 490.292C214.719 487.562 218.522 485.677 223.522 484.539Z" fill="black" stroke="black"/>
<path d="M274 174.772C277.847 174.572 283.262 174.787 287.063 174.793H287.064L312.53 174.774C311.678 176.272 310.863 177.605 310.104 178.94C309.24 180.462 308.492 181.927 308.017 183.433C307.051 186.49 307.227 189.648 309.559 193.777V193.778C311.566 197.337 311.405 201.04 310.383 204.803C309.871 206.687 309.147 208.573 308.381 210.453C307.714 212.089 307.009 213.731 306.399 215.337L306.145 216.024C302.004 227.423 300.202 237.106 300.716 246.667C301.23 256.226 304.057 265.626 309.121 276.464L309.123 276.466C309.223 276.677 309.305 276.831 309.339 276.9C309.342 276.905 309.344 276.911 309.346 276.916C309.341 276.935 309.335 276.965 309.324 277.008C309.305 277.085 309.281 277.183 309.253 277.315C309.135 277.352 308.983 277.392 308.794 277.431C308.466 277.498 308.054 277.56 307.566 277.615C306.591 277.725 305.338 277.808 303.89 277.868C300.993 277.986 297.344 278.01 293.632 277.981C286.876 277.929 279.936 277.7 276.989 277.552C282.087 267.211 285.065 257.642 285.779 247.93C286.51 238.003 284.876 227.959 280.773 216.826C279.652 213.782 278.582 211.319 277.721 209.18C276.855 207.031 276.198 205.208 275.864 203.388C275.205 199.79 275.796 196.119 278.827 189.944C279.334 188.911 279.339 187.604 279.089 186.239C278.837 184.862 278.312 183.352 277.676 181.861C276.555 179.235 275.057 176.605 274 174.772Z" fill="black" stroke="black"/>
<path d="M293.061 75.5049C293.252 75.7088 293.478 75.9765 293.734 76.3105C294.185 76.899 294.706 77.6536 295.277 78.5312C296.419 80.2861 297.747 82.5071 299.102 84.8164C301.798 89.4134 304.618 94.3919 306.229 96.6182L306.339 96.7695L306.521 96.8125C309.07 97.4091 311.686 97.773 314.226 98.2051C329.467 100.798 344.746 102.826 359.91 105.625C358.907 105.609 357.883 105.589 356.849 105.57C354.037 105.52 351.159 105.513 348.513 105.841C345.278 106.242 341.532 106.2 337.541 106.043C333.566 105.887 329.338 105.616 325.203 105.57C316.952 105.48 308.839 106.275 303.38 110.809C300.867 112.897 299.635 116.07 299.015 119.329C298.431 122.392 298.375 125.605 298.342 128.196L291.839 128.133H291.832L288.104 128.147C288.017 123.332 287.523 118.553 285.599 114.665C283.589 110.604 280.043 107.556 273.94 106.408C270.781 105.814 267.333 105.736 263.895 105.78C260.437 105.825 257.014 105.991 253.82 105.898C248.158 105.734 242.474 105.737 236.798 105.75C232.912 105.759 229.029 105.771 225.155 105.739C243.123 102.681 261.4 100.152 279.47 97.0928L279.663 97.0596L279.782 96.9043C282.013 94.0023 284.353 90.1239 286.658 86.1865C288.855 82.435 291.024 78.6308 293.061 75.5049Z" fill="black" stroke="black"/>
<path d="M303.447 431.895C304.46 449.581 313.173 462.67 327.291 472.243C319.97 471.964 310.957 472.19 303.822 472.176C289.018 472.095 274.219 472.139 259.418 472.306C274.69 463.169 280.658 448.934 283.297 431.838L303.447 431.895Z" fill="black" stroke="black"/>
<path d="M274.724 140.978C279.27 140.607 286.561 140.786 291.143 140.788C297.777 140.791 305.358 140.64 311.959 141.061C310.717 143.158 309.146 144.944 307.604 146.83C305.91 148.902 304.271 151.08 303.32 153.845L303.311 153.872L303.305 153.901C302.579 157.226 302.595 158.649 302.576 161.805C296.412 161.928 290.036 161.88 283.84 161.908C283.542 154.239 281.421 150.521 279.237 147.87C278.689 147.204 278.138 146.607 277.628 146.045C277.114 145.479 276.641 144.948 276.227 144.395C275.494 143.416 274.947 142.37 274.724 140.978Z" fill="black" stroke="black"/>
<path d="M293.312 20.1426C293.546 20.4808 293.819 20.9085 294.122 21.4219C294.639 22.2989 295.234 23.3947 295.881 24.6436C297.173 27.1406 298.663 30.235 300.14 33.3916C303.011 39.5309 305.819 45.8821 307.008 48.5117C304.548 53.5778 301.669 58.9292 299.48 64.1504C298.712 63.1145 298.108 62.3177 297.39 61.7012C296.488 60.9268 295.428 60.4472 293.706 60.0195L293.565 59.9844L293.428 60.0303C291.725 60.5985 290.684 61.0404 289.755 61.6992C288.963 62.2606 288.268 62.9705 287.31 64.001C284.691 59.0027 282.144 53.9665 279.669 48.8945C282.171 42.2411 289.634 27.0847 293.312 20.1426Z" fill="black" stroke="black"/>
</svg>
